<?xml version="1.0" standalone="no"?>
<!DOCTYPE svg PUBLIC "-//W3C//DTD SVG 20010904//EN"
 "http://www.w3.org/TR/2001/REC-SVG-20010904/DTD/svg10.dtd">
<svg version="1.0" xmlns="http://www.w3.org/2000/svg"
 width="665.000000pt" height="665.000000pt" viewBox="0 0 665.000000 665.000000"
 preserveAspectRatio="xMidYMid meet">
<metadata>
Created by potrace 1.14, written by Peter Selinger 2001-2017
</metadata>
<g transform="translate(0.000000,665.000000) scale(0.100000,-0.100000)"
fill="#000000" stroke="none">
<path d="M3210 6507 c-279 -172 -672 -417 -828 -518 -68 -43 -126 -79 -128
-79 -3 0 -17 -9 -32 -19 -15 -11 -277 -179 -582 -373 -700 -446 -657 -418
-672 -452 -19 -45 -17 -631 3 -671 28 -58 104 -72 130 -24 11 22 16 118 21
437 l3 193 160 102 c158 100 363 229 930 587 160 100 313 197 340 215 262 170
882 545 903 545 8 0 117 -64 241 -142 124 -79 235 -148 246 -154 11 -6 121
-75 245 -154 124 -78 251 -159 283 -179 32 -20 79 -50 105 -66 26 -17 115 -73
197 -124 83 -52 173 -108 200 -126 28 -18 217 -137 420 -265 204 -128 372
-235 375 -237 2 -2 5 -225 6 -496 2 -635 4 -715 20 -754 25 -62 102 -52 126
16 12 37 19 956 8 1201 l-5 115 -75 50 c-126 85 -390 254 -838 536 -235 148
-432 273 -437 277 -6 5 -15 11 -21 13 -5 2 -110 67 -232 144 -122 77 -230 145
-239 150 -10 6 -79 48 -153 94 -289 181 -475 291 -489 291 -9 0 -113 -60 -231
-133z"/>
<path d="M3357 5548 c-26 -5 -72 -19 -101 -32 -29 -13 -98 -37 -153 -54 -116
-37 -177 -82 -221 -166 -38 -73 -38 -177 0 -259 52 -110 209 -242 392 -328
104 -48 147 -54 200 -25 63 34 137 168 202 367 39 121 40 241 2 319 -64 130
-191 200 -321 178z m150 -217 c32 -48 38 -109 18 -189 -19 -76 -88 -259 -109
-287 -13 -18 -15 -18 -61 -1 -58 23 -206 121 -259 172 -74 72 -95 139 -61 203
29 57 141 83 198 47 31 -21 43 -16 52 23 7 35 52 79 91 90 40 11 103 -17 131
-58z"/>
<path d="M4235 4602 c-170 -16 -392 -104 -579 -230 -58 -39 -182 -142 -271
-225 -11 -10 -36 -31 -55 -47 -34 -27 -36 -27 -57 -10 -39 31 -213 102 -236
96 -40 -11 -309 -270 -430 -415 l-27 -33 -93 32 c-160 55 -251 73 -372 72
-127 0 -213 -17 -372 -71 l-113 -39 -172 175 c-234 236 -271 260 -330 213 -50
-39 -111 -263 -133 -485 -4 -33 -8 -66 -11 -74 -2 -7 -7 -104 -10 -215 -2
-110 -7 -211 -10 -224 -5 -25 13 -25 -189 -6 -38 4 -107 7 -152 8 -70 1 -85
-2 -102 -19 -31 -31 -34 -73 -7 -100 33 -33 107 -46 351 -61 55 -3 101 -7 103
-9 8 -7 2 -227 -7 -243 -8 -14 -65 -36 -126 -48 -5 -1 -57 -13 -115 -27 -120
-29 -195 -60 -204 -83 -11 -29 -6 -73 11 -89 22 -23 96 -16 271 24 73 17 142
31 153 31 18 0 19 -9 19 -217 0 -297 8 -864 13 -887 2 -11 12 -22 23 -26 34
-12 408 -14 2579 -14 1740 -1 2294 3 2332 14 16 4 27 592 12 659 -15 66 -76
95 -119 56 -27 -24 -32 -73 -34 -337 l-2 -233 -2321 -1 -2321 -2 0 518 0 518
52 12 c124 28 203 52 223 68 34 26 36 66 6 103 -24 28 -31 30 -72 27 -25 -3
-79 -13 -119 -24 -56 -14 -75 -16 -80 -6 -5 6 -9 54 -11 106 l-2 95 33 -5 c18
-2 67 -6 108 -8 77 -5 107 4 137 43 18 23 16 36 -12 70 -28 32 -76 46 -195 55
-36 3 -67 5 -69 5 -3 1 8 336 14 411 14 183 38 359 54 404 8 21 41 -7 282
-246 59 -60 114 -108 121 -108 7 0 52 15 101 34 48 19 87 32 87 29 0 -3 6 -1
13 5 30 24 185 55 297 58 141 4 215 -12 405 -91 98 -40 92 -40 127 -8 35 30
236 235 359 365 l72 77 41 -21 c23 -11 53 -29 69 -40 l27 -20 -36 -66 c-83
-151 -137 -257 -165 -325 -31 -73 -95 -276 -104 -325 -30 -178 -37 -239 -40
-372 -3 -134 0 -183 20 -305 48 -306 261 -571 498 -619 62 -13 155 -13 212 -1
46 10 156 71 201 112 125 117 225 331 250 538 21 169 8 394 -32 550 -42 167
-110 320 -204 461 -30 43 -56 81 -59 84 -3 3 -27 30 -52 60 -26 30 -88 95
-138 144 -50 50 -91 96 -91 102 0 17 91 109 175 176 172 137 327 219 503 265
80 21 121 25 232 26 196 1 317 -36 455 -139 146 -108 228 -216 359 -471 41
-81 93 -170 113 -197 54 -70 132 -131 203 -157 63 -23 94 -51 140 -129 43 -73
123 -146 202 -184 109 -52 104 -45 73 -107 -119 -236 -303 -382 -533 -423 -90
-17 -304 -14 -372 4 -146 40 -303 162 -382 300 -27 47 -62 83 -89 93 -25 8
-78 -29 -85 -59 -19 -74 118 -267 261 -369 150 -108 229 -130 522 -150 122 -8
164 -26 274 -117 58 -47 117 -69 189 -69 92 0 133 16 188 72 74 76 73 184 -3
294 -19 28 -35 54 -35 56 0 3 16 23 35 45 108 120 176 236 225 384 25 75 33
118 37 205 8 157 -19 234 -96 279 -30 17 -50 19 -175 17 -278 -5 -283 -5 -341
24 -78 38 -125 98 -206 263 -117 237 -228 385 -378 504 -92 73 -253 153 -351
174 -67 14 -284 24 -365 16z m-760 -874 c202 -210 307 -395 370 -647 73 -294
46 -600 -70 -796 -49 -83 -143 -169 -208 -191 -217 -73 -436 106 -517 421 -30
118 -35 165 -34 330 0 114 6 178 23 265 53 264 189 590 290 698 20 20 24 21
49 8 15 -8 59 -47 97 -88z m2502 -284 c16 -22 27 -96 18 -123 -9 -30 -49 -27
-111 9 -53 30 -104 82 -104 105 0 13 20 19 95 28 49 7 89 -1 102 -19z m-213
-926 c15 -23 16 -31 4 -55 -24 -51 -98 -47 -169 9 -40 32 -37 37 48 83 l57 31
21 -21 c12 -11 30 -32 39 -47z"/>
<path d="M4655 3817 c-78 -26 -106 -55 -110 -113 -2 -31 27 -66 56 -66 13 0
50 5 81 13 61 14 109 8 193 -24 38 -15 41 -14 64 6 31 29 40 57 29 86 -28 75
-210 132 -313 98z"/>
<path d="M1723 3270 c-42 -17 -58 -57 -57 -145 0 -88 17 -144 43 -146 101 -8
106 -1 106 148 0 109 -1 116 -24 134 -25 21 -35 22 -68 9z"/>
<path d="M2376 3257 c-21 -21 -24 -34 -25 -116 -3 -121 9 -157 53 -165 50 -9
84 7 94 46 23 89 9 229 -26 243 -41 17 -73 15 -96 -8z"/>
<path d="M1684 2784 c-25 -37 -21 -84 10 -148 31 -63 88 -117 141 -133 60 -19
147 -10 206 20 l52 28 51 -27 c125 -66 281 -21 341 99 39 80 29 171 -21 183
-50 13 -66 1 -104 -71 -57 -109 -114 -115 -180 -18 -63 93 -115 92 -176 -2
-39 -61 -70 -80 -108 -65 -23 8 -69 61 -72 81 -1 5 -2 16 -3 24 -2 28 -43 55
-83 55 -29 0 -41 -6 -54 -26z"/>
<path d="M3073 598 c-12 -6 -24 -22 -27 -37 -9 -49 -4 -486 5 -518 11 -36 26
-44 66 -37 48 9 52 19 55 137 l3 112 133 0 c72 0 132 -2 133 -5 0 -3 1 -51 3
-107 2 -116 15 -142 67 -139 62 4 63 8 63 301 0 225 -2 267 -15 280 -25 25
-64 27 -90 6 -22 -17 -24 -27 -26 -117 -1 -55 -2 -102 -2 -105 -1 -3 -62 -6
-136 -6 l-135 -1 0 102 c0 66 -4 108 -13 119 -15 22 -55 29 -84 15z"/>
<path d="M1510 582 c-21 -17 -21 -24 -21 -227 0 -328 -1 -313 21 -335 25 -25
67 -20 92 11 14 17 17 37 16 99 -2 43 0 81 2 84 3 2 43 6 90 7 97 2 143 13
183 41 83 60 90 218 12 287 -48 42 -90 51 -241 51 -111 0 -135 -3 -154 -18z
m299 -107 c24 -24 33 -68 21 -101 -13 -34 -60 -51 -141 -52 l-69 -1 -1 40 c0
21 -1 59 -1 84 0 25 1 47 1 50 1 2 39 3 86 2 69 -2 88 -6 104 -22z"/>
<path d="M2530 543 c-27 -10 -40 -36 -40 -79 0 -41 -1 -43 -32 -46 -34 -3 -61
-38 -51 -65 5 -13 48 -29 69 -25 8 2 13 -34 16 -115 3 -92 7 -124 21 -145 52
-76 228 -90 237 -18 8 54 2 60 -50 58 -71 -3 -81 11 -84 108 -4 107 -2 110 44
109 54 -1 77 9 82 39 7 37 -19 56 -75 56 -26 0 -47 3 -48 8 -1 4 -2 26 -4 50
-1 24 -6 47 -11 52 -13 12 -56 20 -74 13z"/>
<path d="M2125 418 c-85 -29 -135 -105 -135 -203 0 -137 92 -217 241 -210 107
4 174 48 148 96 -10 19 -46 31 -54 18 -6 -9 -100 -25 -125 -21 -51 9 -90 44
-90 82 0 5 62 11 138 12 l137 3 0 56 c0 68 -36 128 -92 154 -43 21 -127 27
-168 13z m113 -77 c14 -1 53 -61 49 -76 -4 -12 -177 -16 -177 -4 0 41 60 91
99 84 9 -2 22 -4 29 -4z"/>
<path d="M3809 421 c-61 -19 -109 -60 -131 -111 -6 -14 -12 -55 -13 -91 -3
-58 1 -73 26 -118 38 -66 89 -93 179 -96 69 -2 120 13 158 48 83 76 88 234 11
313 -52 53 -154 78 -230 55z m133 -118 c19 -20 23 -36 23 -83 0 -92 -49 -140
-118 -117 -35 12 -57 54 -57 111 0 63 15 95 51 110 40 17 72 10 101 -21z"/>
<path d="M4200 417 c-25 -12 -25 -15 -28 -152 -3 -175 8 -213 72 -244 64 -31
128 -25 172 16 25 23 26 23 31 4 8 -33 73 -50 97 -25 19 19 18 5 20 204 2 160
1 166 -22 188 -18 18 -29 22 -50 17 -48 -11 -52 -23 -53 -145 -2 -153 -27
-195 -103 -176 -34 8 -40 33 -41 161 -1 126 -7 151 -38 159 -29 8 -28 8 -57
-7z"/>
<path d="M4765 421 c-94 -24 -139 -106 -99 -182 18 -35 52 -52 146 -69 38 -7
69 -18 72 -26 9 -22 -4 -44 -31 -50 -29 -8 -119 3 -145 17 -37 20 -77 -16 -62
-56 18 -46 214 -68 282 -32 42 23 72 72 72 119 0 43 -43 93 -87 102 -16 3 -53
10 -85 16 -55 11 -73 26 -62 54 11 29 91 35 148 11 34 -14 37 -14 57 6 27 27
21 49 -18 72 -36 20 -139 30 -188 18z"/>
<path d="M5171 409 c-81 -36 -129 -127 -116 -224 15 -121 109 -190 246 -181
60 4 122 26 135 47 16 26 14 48 -7 62 -17 12 -25 12 -62 0 -90 -31 -165 -13
-185 46 l-11 31 127 -1 c70 0 135 3 144 6 20 8 15 82 -9 133 -42 88 -162 126
-262 81z m157 -95 c12 -14 22 -33 22 -42 0 -15 -12 -17 -90 -17 -49 -1 -90 1
-90 3 0 2 7 19 16 37 27 57 99 67 142 19z"/>
</g>
</svg>
