<svg width="296" height="95" viewBox="0 0 296 95" fill="none" xmlns="http://www.w3.org/2000/svg">
<g clip-path="url(#clip0_3_43)">
<circle cx="54" cy="27" r="6" fill="#EA3131"/>
<path d="M33.2214 13.5548C20.5766 21.0056 9.90555 27.3388 9.5663 27.6254C8.94948 28.1412 8.91864 28.4564 8.91864 34.1592C8.91864 39.7473 8.94948 40.1485 9.53546 40.693C10.2448 41.3521 10.7383 41.4094 11.4785 40.8936C11.9411 40.607 12.0027 39.8046 12.0644 34.9616L12.157 29.3734L34.4859 16.2772C48.056 8.31053 56.969 3.23825 57.1849 3.38153C57.4008 3.49616 67.5167 9.37083 79.6681 16.4778L101.72 29.3734L101.75 40.4637C101.75 50.1498 101.812 51.6113 102.244 51.9838C102.892 52.5856 103.694 52.557 104.31 51.9265C104.773 51.4394 104.834 50.1784 104.834 39.8046C104.834 33.4427 104.711 28.0839 104.588 27.8833C104.187 27.3101 57.3391 0 56.784 0C56.5064 0.028657 45.8971 6.10394 33.2214 13.5548Z" fill="black"/>
<path d="M53.2989 20.1459C52.5587 20.5184 51.14 20.9769 50.1531 21.1775C47.0073 21.808 44.9718 24.4444 45.4653 27.2242C45.9279 29.8033 48.5802 32.2965 53.1138 34.3884C55.7353 35.6207 56.4138 35.678 57.925 34.761C59.2512 33.9586 61.9652 27.6827 61.9652 25.3615C61.9652 20.9769 57.3082 18.1972 53.2989 20.1459ZM57.1232 22.6677C58.1718 23.0976 58.7269 24.2152 58.6652 25.6767C58.6344 26.823 56.7531 31.6087 56.1363 32.1818C55.6737 32.6117 51.3559 30.1759 49.9064 28.743C48.7344 27.5681 48.5802 27.1669 48.6727 25.9346C48.8269 24.4158 51.4793 23.5561 52.9596 24.5304C53.6073 24.9316 53.6381 24.9316 53.6381 24.3585C53.6381 23.5847 54.9643 22.3525 55.7662 22.3525C56.1054 22.3525 56.7222 22.4958 57.1232 22.6677Z" fill="black"/>
<path d="M69.5521 36.8529C67.3007 37.3688 63.2298 39.1168 60.8242 40.6357C59.8064 41.2661 57.8634 42.7849 56.4756 43.9885C55.1186 45.1635 53.9158 46.0518 53.8233 45.9086C53.5457 45.4787 49.7522 43.8453 49.0737 43.8453C48.5186 43.8453 43.3373 48.459 40.9317 51.1241L40.1915 51.9552L37.8476 51.1815C32.9747 49.634 29.2738 49.634 24.4009 51.2388L21.9027 52.0698L17.9551 48.3731C14.47 45.1062 13.9149 44.705 13.0822 44.7623C12.3729 44.8196 12.0336 45.0775 11.6018 45.8799C10.2448 48.4877 9.22706 54.5343 9.22706 60.1798C9.22706 62.501 9.13454 63.332 8.85697 63.332C8.64108 63.332 6.82141 63.1887 4.7859 63.0168C1.51675 62.7589 1.08497 62.7875 0.560676 63.2174C-0.148669 63.8192 -0.17951 64.5643 0.437312 65.1374C0.899926 65.5959 2.13357 65.7679 6.54384 66.0831L9.22706 66.255V68.5189C9.22706 69.7512 9.13454 70.8115 8.98033 70.8975C8.85697 70.9548 7.09898 71.3847 5.06347 71.8145C1.1775 72.6456 0.283107 73.0754 0.283107 74.0784C0.283107 75.5686 1.14665 75.6545 5.71114 74.6515C7.49992 74.2503 9.04201 73.9351 9.1037 73.9351C9.16538 73.9351 9.22706 78.4343 9.22706 83.9078C9.22706 91.2722 9.31958 93.966 9.59715 94.2243C9.87472 94.4818 20.8541 94.5682 57.0924 94.5682C103.354 94.5682 104.187 94.5682 104.526 94.0233C104.711 93.6794 104.834 91.1293 104.834 87.7478C104.834 82.5895 104.773 82.0164 104.279 81.5862C103.57 80.9848 102.861 80.9557 102.244 81.5579C101.843 81.93 101.75 82.8188 101.75 86.8591V91.7025H57.0307H12.3112V82.4459V73.1614L14.7785 72.6742C17.3074 72.187 18.171 71.6999 18.171 70.7829C18.171 70.1237 17.3691 69.35 16.6906 69.35C16.413 69.35 15.3953 69.5506 14.47 69.7799C13.5448 70.0091 12.6813 70.2097 12.5579 70.2097C12.4037 70.2097 12.3112 69.35 12.3112 68.3183V66.3983L14.4392 66.5989C16.3514 66.7709 16.6598 66.7422 17.2149 66.2264C18.0168 65.4813 18.0168 65.2807 17.3383 64.507C16.9065 64.0198 16.3205 63.8479 14.5009 63.7046L12.2186 63.5326L12.4037 58.6323C12.5579 54.477 13.2672 49.1755 13.7299 48.7169C13.8224 48.6596 15.5186 50.1498 17.5542 52.0125L21.2551 55.4227L22.242 55.0501C29.2429 52.471 32.5738 52.2991 37.7551 54.3051C39.2046 54.8495 40.4999 55.3081 40.6233 55.3081C40.7466 55.3081 42.7822 53.4167 45.1878 51.1241L49.5055 46.9402L50.8008 47.542C51.5102 47.8859 52.0962 48.2584 52.0962 48.4017C52.0962 48.545 51.4485 49.634 50.6775 50.8089C45.0644 59.492 43.7691 71.1841 47.6242 78.2623C48.7036 80.2397 51.0784 82.5322 53.0831 83.5348C55.4578 84.7384 58.5111 84.8821 60.855 83.8787C65.5737 81.8727 68.4419 76.4283 68.4419 69.4646C68.4419 61.8132 65.4504 55.3654 59.3438 49.8919L56.9999 47.7713L57.5859 47.0262C58.6962 45.6506 63.2606 42.4411 65.7895 41.2948C71.6802 38.5724 78.2802 38.5724 82.6288 41.2661C85.9909 43.3294 88.0264 45.7653 90.4937 50.551C92.2512 53.9898 94.0712 55.8525 96.4151 56.569C97.8026 56.9988 98.111 57.2567 98.9128 58.575C100.054 60.409 101.535 61.6699 103.416 62.329C104.187 62.6156 104.834 62.9881 104.834 63.1601C104.834 63.332 104.434 64.1058 103.94 64.9082C100.856 69.8658 96.3839 72.1297 90.154 71.8718C87.5633 71.7858 86.7927 71.6426 85.096 70.8975C82.783 69.8945 80.6241 68.0031 79.5446 66.0831C78.6503 64.5356 77.6942 64.1344 76.769 64.9082C75.9979 65.5673 75.9979 66.0831 76.7998 67.4873C77.8484 69.3213 79.2362 70.7829 81.1484 72.1011C83.8624 73.9638 85.8675 74.5656 90.0619 74.7662C93.9166 74.9668 94.1329 75.0527 97.0936 77.288C98.4811 78.3483 101.411 78.5485 102.892 77.6892C105.174 76.371 105.636 73.9638 104.002 71.8432L103.077 70.6109L104.372 69.2927C108.289 65.2807 110.17 58.403 108.227 55.4227C107.271 54.0185 106.469 53.8179 102.213 54.0471C98.6974 54.2191 98.3273 54.1904 97.032 53.6173C95.4586 52.9009 94.503 51.7546 93.0843 48.8602C90.0002 42.4984 85.1273 38.2285 79.3596 36.8243C77.1082 36.2798 72.0194 36.3085 69.5521 36.8529ZM58.2027 52.8436C60.9167 55.5087 62.8288 58.489 64.1241 62.1284C65.3886 65.6532 65.7278 70.5536 64.926 73.7632C63.3531 79.9814 59.1279 82.9907 54.7177 81.0703C50.184 79.0934 47.6859 72.3876 48.7036 65.0515C49.3822 60.2371 51.4793 54.7922 53.9466 51.468C55.1186 49.8632 55.1494 49.8632 58.2027 52.8436ZM105.76 57.486C106.191 58.5176 106.13 59.6066 105.636 59.7786C104.742 60.0938 101.75 58.1738 101.75 57.2567C101.75 57.0561 102.861 56.8842 104.619 56.7982C105.266 56.7409 105.544 56.9129 105.76 57.486ZM101.75 74.3936C101.75 75.5686 99.7764 75.7405 98.4507 74.6802C97.4637 73.9065 97.4637 73.9351 99.1292 73.1327L100.363 72.5596L101.072 73.1614C101.442 73.4766 101.75 74.0211 101.75 74.3936Z" fill="black"/>
<path d="M80.5625 50.4364C78.8971 50.7802 78.0027 51.4967 78.0027 52.4424C78.0027 53.5313 78.9588 54.0758 80.069 53.6173C81.1485 53.1588 82.7522 53.2161 83.9859 53.7892C85.0344 54.2477 85.1273 54.2477 85.7129 53.7319C86.7311 52.8722 86.4226 51.8406 84.9423 51.1241C83.4924 50.4077 81.9503 50.1498 80.5625 50.4364Z" fill="black"/>
<path d="M22.9204 60.8962C22.3036 61.7845 22.427 64.9368 23.1363 65.3667C23.7531 65.7105 24.7709 65.6819 25.2027 65.2807C25.6961 64.8222 25.6961 60.9821 25.2027 60.5236C24.5858 59.9505 23.4756 60.1224 22.9204 60.8962Z" fill="black"/>
<path d="M36.1205 60.5237C35.627 60.9822 35.627 64.8223 36.1205 65.2808C36.7064 65.8253 38.156 65.7107 38.5261 65.0802C38.6803 64.765 38.8345 63.7906 38.8345 62.9023C38.8345 62.0139 38.6803 61.0396 38.5261 60.7243C38.156 60.0939 36.7064 59.9792 36.1205 60.5237Z" fill="black"/>
<path d="M22.797 69.0921C22.0568 70.3243 23.4138 72.9035 25.2643 73.7918C26.5288 74.3936 28.626 74.3363 29.8288 73.6486C30.8157 73.0754 30.8157 73.0754 31.8335 73.6486C34.7017 75.282 38.8344 73.276 38.8344 70.2097C38.8344 69.0348 38.3718 68.4903 37.4157 68.4903C36.6447 68.4903 36.3671 68.7769 35.9045 70.0664C35.5036 71.1841 34.3008 71.7572 33.4372 71.2414C33.098 71.0408 32.6353 70.5249 32.4194 70.1237C31.5559 68.4903 30.0447 68.5476 29.1195 70.2097C28.4101 71.4993 27.5157 71.8145 26.5288 71.1554C26.097 70.8402 25.6652 70.267 25.6344 69.8945C25.4802 68.8915 24.9867 68.4903 23.9998 68.4903C23.4447 68.4903 23.0129 68.6909 22.797 69.0921Z" fill="black"/>
</g>
<path d="M158.465 86.156C158.24 86.156 158.032 86.0953 157.841 85.974C157.668 85.8353 157.52 85.6273 157.399 85.35L153.473 74.404C153.386 74.1613 153.36 73.9533 153.395 73.78C153.447 73.6067 153.534 73.468 153.655 73.364C153.794 73.26 153.958 73.208 154.149 73.208C154.357 73.208 154.522 73.26 154.643 73.364C154.764 73.4507 154.868 73.624 154.955 73.884L158.803 85.064H158.153L162.157 73.962C162.244 73.702 162.374 73.5113 162.547 73.39C162.72 73.2687 162.92 73.208 163.145 73.208C163.388 73.208 163.596 73.2687 163.769 73.39C163.942 73.5113 164.072 73.702 164.159 73.962L168.059 85.064H167.409L171.361 73.858C171.448 73.598 171.552 73.4247 171.673 73.338C171.794 73.2513 171.959 73.208 172.167 73.208C172.41 73.208 172.583 73.2687 172.687 73.39C172.791 73.5113 172.843 73.6587 172.843 73.832C172.86 74.0053 172.834 74.196 172.765 74.404L168.813 85.35C168.709 85.6273 168.562 85.8353 168.371 85.974C168.198 86.0953 167.99 86.156 167.747 86.156C167.522 86.156 167.314 86.0953 167.123 85.974C166.932 85.8353 166.785 85.6273 166.681 85.35L162.651 74.118H163.613L159.557 85.35C159.453 85.6273 159.306 85.8353 159.115 85.974C158.942 86.0953 158.725 86.156 158.465 86.156ZM176.846 86.104C176.586 86.104 176.387 86.026 176.248 85.87C176.109 85.714 176.04 85.506 176.04 85.246V74.118C176.04 73.8407 176.109 73.6327 176.248 73.494C176.387 73.3553 176.586 73.286 176.846 73.286C177.089 73.286 177.279 73.3553 177.418 73.494C177.557 73.6327 177.626 73.8407 177.626 74.118V85.246C177.626 85.506 177.557 85.714 177.418 85.87C177.297 86.026 177.106 86.104 176.846 86.104ZM176.846 70.14C176.482 70.14 176.196 70.0447 175.988 69.854C175.797 69.6633 175.702 69.3947 175.702 69.048C175.702 68.7013 175.797 68.4413 175.988 68.268C176.196 68.0773 176.482 67.982 176.846 67.982C177.21 67.982 177.487 68.0773 177.678 68.268C177.886 68.4413 177.99 68.7013 177.99 69.048C177.99 69.3947 177.886 69.6633 177.678 69.854C177.487 70.0447 177.21 70.14 176.846 70.14ZM186.562 86.208C185.626 86.208 184.846 86.0347 184.222 85.688C183.598 85.3413 183.13 84.8473 182.818 84.206C182.506 83.5473 182.35 82.7413 182.35 81.788V74.664H180.426C180.2 74.664 180.018 74.612 179.88 74.508C179.741 74.3867 179.672 74.222 179.672 74.014C179.672 73.8233 179.741 73.676 179.88 73.572C180.018 73.4507 180.2 73.39 180.426 73.39H182.35V70.14C182.35 69.8627 182.419 69.6633 182.558 69.542C182.696 69.4033 182.896 69.334 183.156 69.334C183.398 69.334 183.589 69.4033 183.728 69.542C183.866 69.6633 183.936 69.8627 183.936 70.14V73.39H187.446C187.688 73.39 187.87 73.4507 187.992 73.572C188.113 73.676 188.174 73.8233 188.174 74.014C188.174 74.222 188.113 74.3867 187.992 74.508C187.87 74.612 187.688 74.664 187.446 74.664H183.936V81.58C183.936 82.6373 184.152 83.4433 184.586 83.998C185.019 84.5527 185.738 84.83 186.744 84.83C187.09 84.83 187.376 84.7953 187.602 84.726C187.844 84.6393 188.044 84.596 188.2 84.596C188.321 84.596 188.425 84.648 188.512 84.752C188.616 84.856 188.668 85.0207 188.668 85.246C188.668 85.3847 188.633 85.5233 188.564 85.662C188.512 85.8007 188.408 85.8873 188.252 85.922C188.061 85.9913 187.801 86.052 187.472 86.104C187.142 86.1733 186.839 86.208 186.562 86.208ZM191.395 86.156C191.135 86.156 190.935 86.0867 190.797 85.948C190.658 85.8093 190.589 85.61 190.589 85.35V68.32C190.589 68.0427 190.658 67.8433 190.797 67.722C190.935 67.5833 191.135 67.514 191.395 67.514C191.637 67.514 191.828 67.5833 191.967 67.722C192.105 67.8433 192.175 68.0427 192.175 68.32V76.328H191.863C192.209 75.288 192.799 74.4993 193.631 73.962C194.48 73.4247 195.451 73.156 196.543 73.156C197.548 73.156 198.38 73.338 199.039 73.702C199.715 74.066 200.217 74.612 200.547 75.34C200.876 76.068 201.041 76.9693 201.041 78.044V85.35C201.041 85.61 200.971 85.8093 200.833 85.948C200.694 86.0867 200.503 86.156 200.261 86.156C200.001 86.156 199.801 86.0867 199.663 85.948C199.524 85.8093 199.455 85.61 199.455 85.35V78.174C199.455 76.9087 199.203 75.99 198.701 75.418C198.198 74.8287 197.401 74.534 196.309 74.534C195.061 74.534 194.055 74.924 193.293 75.704C192.547 76.4667 192.175 77.498 192.175 78.798V85.35C192.175 85.8873 191.915 86.156 191.395 86.156ZM215.328 86.208C214.167 86.208 213.266 85.844 212.624 85.116C212 84.388 211.688 83.3567 211.688 82.022V68.32C211.688 68.0427 211.758 67.8433 211.896 67.722C212.035 67.5833 212.234 67.514 212.494 67.514C212.737 67.514 212.928 67.5833 213.066 67.722C213.205 67.8433 213.274 68.0427 213.274 68.32V81.84C213.274 82.8453 213.474 83.5993 213.872 84.102C214.271 84.5873 214.852 84.83 215.614 84.83C215.788 84.83 215.935 84.8213 216.056 84.804C216.178 84.7867 216.299 84.778 216.42 84.778C216.576 84.7607 216.689 84.7953 216.758 84.882C216.845 84.9513 216.888 85.1073 216.888 85.35C216.888 85.5927 216.828 85.7747 216.706 85.896C216.585 86.0173 216.386 86.104 216.108 86.156C215.987 86.1733 215.857 86.182 215.718 86.182C215.597 86.1993 215.467 86.208 215.328 86.208ZM223.994 86.208C222.815 86.208 221.792 85.9393 220.926 85.402C220.059 84.8647 219.383 84.1107 218.898 83.14C218.43 82.1693 218.196 81.0167 218.196 79.682C218.196 78.694 218.326 77.8013 218.586 77.004C218.863 76.2067 219.253 75.522 219.756 74.95C220.276 74.3607 220.891 73.9187 221.602 73.624C222.33 73.312 223.127 73.156 223.994 73.156C225.19 73.156 226.221 73.4247 227.088 73.962C227.954 74.4993 228.622 75.262 229.09 76.25C229.575 77.2207 229.818 78.3647 229.818 79.682C229.818 80.6873 229.679 81.5887 229.402 82.386C229.142 83.1833 228.752 83.868 228.232 84.44C227.729 85.012 227.122 85.454 226.412 85.766C225.701 86.0607 224.895 86.208 223.994 86.208ZM223.994 84.882C224.86 84.882 225.606 84.6827 226.23 84.284C226.871 83.868 227.356 83.27 227.686 82.49C228.032 81.71 228.206 80.774 228.206 79.682C228.206 78.0353 227.824 76.7613 227.062 75.86C226.316 74.9587 225.294 74.508 223.994 74.508C223.144 74.508 222.399 74.716 221.758 75.132C221.134 75.5307 220.648 76.12 220.302 76.9C219.972 77.6627 219.808 78.59 219.808 79.682C219.808 81.346 220.189 82.6287 220.952 83.53C221.714 84.4313 222.728 84.882 223.994 84.882ZM237.592 86.156C237.332 86.156 237.115 86.0867 236.942 85.948C236.769 85.8093 236.613 85.6013 236.474 85.324L231.794 74.404C231.707 74.196 231.673 74.0053 231.69 73.832C231.725 73.6413 231.803 73.494 231.924 73.39C232.063 73.2687 232.253 73.208 232.496 73.208C232.721 73.208 232.886 73.26 232.99 73.364C233.111 73.468 233.215 73.6327 233.302 73.858L237.93 85.038H237.28L241.934 73.858C242.021 73.6327 242.125 73.468 242.246 73.364C242.367 73.26 242.541 73.208 242.766 73.208C242.991 73.208 243.156 73.2687 243.26 73.39C243.381 73.494 243.451 73.6327 243.468 73.806C243.485 73.9793 243.451 74.17 243.364 74.378L238.684 85.324C238.58 85.6013 238.433 85.8093 238.242 85.948C238.051 86.0867 237.835 86.156 237.592 86.156ZM251.604 86.208C250.304 86.208 249.186 85.948 248.25 85.428C247.314 84.908 246.595 84.1627 246.092 83.192C245.589 82.2213 245.338 81.0687 245.338 79.734C245.338 78.4167 245.589 77.2727 246.092 76.302C246.595 75.314 247.288 74.5427 248.172 73.988C249.073 73.4333 250.105 73.156 251.266 73.156C252.115 73.156 252.861 73.3033 253.502 73.598C254.161 73.8753 254.715 74.2827 255.166 74.82C255.634 75.34 255.989 75.9813 256.232 76.744C256.475 77.4893 256.596 78.3387 256.596 79.292C256.596 79.5347 256.527 79.7167 256.388 79.838C256.267 79.9593 256.093 80.02 255.868 80.02H246.482V78.85H255.608L255.192 79.188C255.192 78.1827 255.045 77.3333 254.75 76.64C254.455 75.9293 254.013 75.3833 253.424 75.002C252.852 74.6207 252.141 74.43 251.292 74.43C250.339 74.43 249.533 74.6553 248.874 75.106C248.215 75.5393 247.721 76.146 247.392 76.926C247.063 77.6887 246.898 78.5727 246.898 79.578V79.708C246.898 81.372 247.305 82.6547 248.12 83.556C248.935 84.44 250.079 84.882 251.552 84.882C252.193 84.882 252.809 84.7953 253.398 84.622C254.005 84.4487 254.594 84.154 255.166 83.738C255.339 83.6167 255.504 83.556 255.66 83.556C255.833 83.556 255.972 83.5993 256.076 83.686C256.197 83.7727 256.275 83.8853 256.31 84.024C256.362 84.1453 256.353 84.284 256.284 84.44C256.232 84.5787 256.119 84.7087 255.946 84.83C255.391 85.2807 254.724 85.6273 253.944 85.87C253.164 86.0953 252.384 86.208 251.604 86.208Z" fill="black"/>
<path d="M120.925 60.32C120.098 60.32 119.458 60.0933 119.005 59.64C118.578 59.16 118.365 58.5067 118.365 57.68V34.4C118.365 33.5467 118.592 32.9067 119.045 32.48C119.498 32.0267 120.138 31.8 120.965 31.8H130.605C133.698 31.8 136.085 32.5733 137.765 34.12C139.445 35.6667 140.285 37.8267 140.285 40.6C140.285 43.3733 139.445 45.5467 137.765 47.12C136.085 48.6667 133.698 49.44 130.605 49.44H123.485V57.68C123.485 58.5067 123.272 59.16 122.845 59.64C122.418 60.0933 121.778 60.32 120.925 60.32ZM123.485 45.4H129.805C131.618 45.4 132.992 45 133.925 44.2C134.858 43.3733 135.325 42.1733 135.325 40.6C135.325 39.0267 134.858 37.84 133.925 37.04C132.992 36.24 131.618 35.84 129.805 35.84H123.485V45.4ZM152.642 60.4C150.429 60.4 148.522 59.9867 146.922 59.16C145.322 58.3333 144.082 57.16 143.202 55.64C142.349 54.12 141.922 52.32 141.922 50.24C141.922 48.2133 142.336 46.44 143.162 44.92C144.016 43.4 145.176 42.2133 146.642 41.36C148.136 40.48 149.829 40.04 151.722 40.04C153.109 40.04 154.349 40.2667 155.442 40.72C156.562 41.1733 157.509 41.8267 158.282 42.68C159.082 43.5333 159.682 44.5733 160.082 45.8C160.509 47 160.722 48.36 160.722 49.88C160.722 50.36 160.549 50.7333 160.202 51C159.882 51.24 159.416 51.36 158.802 51.36H145.962V48.48H157.202L156.562 49.08C156.562 47.8533 156.376 46.8267 156.002 46C155.656 45.1733 155.136 44.5467 154.442 44.12C153.776 43.6667 152.936 43.44 151.922 43.44C150.802 43.44 149.842 43.7067 149.042 44.24C148.269 44.7467 147.669 45.48 147.242 46.44C146.842 47.3733 146.642 48.4933 146.642 49.8V50.08C146.642 52.2667 147.149 53.9067 148.162 55C149.202 56.0667 150.722 56.6 152.722 56.6C153.416 56.6 154.189 56.52 155.042 56.36C155.922 56.1733 156.749 55.8667 157.522 55.44C158.082 55.12 158.576 54.9867 159.002 55.04C159.429 55.0667 159.762 55.2133 160.002 55.48C160.269 55.7467 160.429 56.08 160.482 56.48C160.536 56.8533 160.456 57.24 160.242 57.64C160.056 58.04 159.722 58.3867 159.242 58.68C158.309 59.2667 157.229 59.7067 156.002 60C154.802 60.2667 153.682 60.4 152.642 60.4ZM173.564 60.4C171.831 60.4 170.377 60.1067 169.204 59.52C168.057 58.9333 167.204 58.08 166.644 56.96C166.084 55.8133 165.804 54.4 165.804 52.72V44.2H163.724C163.084 44.2 162.591 44.04 162.244 43.72C161.897 43.3733 161.724 42.9067 161.724 42.32C161.724 41.7067 161.897 41.24 162.244 40.92C162.591 40.6 163.084 40.44 163.724 40.44H165.804V36.8C165.804 35.9733 166.017 35.3467 166.444 34.92C166.897 34.4933 167.524 34.28 168.324 34.28C169.124 34.28 169.737 34.4933 170.164 34.92C170.591 35.3467 170.804 35.9733 170.804 36.8V40.44H175.044C175.684 40.44 176.177 40.6 176.524 40.92C176.871 41.24 177.044 41.7067 177.044 42.32C177.044 42.9067 176.871 43.3733 176.524 43.72C176.177 44.04 175.684 44.2 175.044 44.2H170.804V52.44C170.804 53.72 171.084 54.68 171.644 55.32C172.204 55.96 173.111 56.28 174.364 56.28C174.817 56.28 175.217 56.24 175.564 56.16C175.911 56.08 176.217 56.0267 176.484 56C176.804 55.9733 177.071 56.08 177.284 56.32C177.497 56.5333 177.604 56.9867 177.604 57.68C177.604 58.2133 177.511 58.6933 177.324 59.12C177.164 59.52 176.857 59.8 176.404 59.96C176.057 60.0667 175.604 60.16 175.044 60.24C174.484 60.3467 173.991 60.4 173.564 60.4ZM182.995 60.32C182.169 60.32 181.529 60.0933 181.075 59.64C180.649 59.16 180.435 58.5067 180.435 57.68V34.12C180.435 33.2667 180.649 32.6133 181.075 32.16C181.529 31.7067 182.169 31.48 182.995 31.48C183.822 31.48 184.449 31.7067 184.875 32.16C185.329 32.6133 185.555 33.2667 185.555 34.12V43.56H200.075V34.12C200.075 33.2667 200.289 32.6133 200.715 32.16C201.169 31.7067 201.809 31.48 202.635 31.48C203.462 31.48 204.089 31.7067 204.515 32.16C204.969 32.6133 205.195 33.2667 205.195 34.12V57.68C205.195 58.5067 204.969 59.16 204.515 59.64C204.089 60.0933 203.462 60.32 202.635 60.32C201.809 60.32 201.169 60.0933 200.715 59.64C200.289 59.16 200.075 58.5067 200.075 57.68V47.84H185.555V57.68C185.555 58.5067 185.342 59.16 184.915 59.64C184.489 60.0933 183.849 60.32 182.995 60.32ZM219.813 60.4C217.786 60.4 216.026 59.9867 214.533 59.16C213.04 58.3333 211.88 57.16 211.053 55.64C210.226 54.0933 209.813 52.28 209.813 50.2C209.813 48.6267 210.04 47.2267 210.493 46C210.973 44.7467 211.653 43.68 212.533 42.8C213.413 41.8933 214.466 41.2133 215.693 40.76C216.92 40.28 218.293 40.04 219.813 40.04C221.84 40.04 223.6 40.4533 225.093 41.28C226.586 42.1067 227.746 43.28 228.573 44.8C229.4 46.32 229.813 48.12 229.813 50.2C229.813 51.7733 229.573 53.1867 229.093 54.44C228.64 55.6933 227.973 56.7733 227.093 57.68C226.213 58.56 225.16 59.24 223.933 59.72C222.706 60.1733 221.333 60.4 219.813 60.4ZM219.813 56.6C220.8 56.6 221.666 56.36 222.413 55.88C223.16 55.4 223.733 54.6933 224.133 53.76C224.56 52.8 224.773 51.6133 224.773 50.2C224.773 48.0667 224.32 46.48 223.413 45.44C222.506 44.3733 221.306 43.84 219.813 43.84C218.826 43.84 217.96 44.08 217.213 44.56C216.466 45.0133 215.88 45.72 215.453 46.68C215.053 47.6133 214.853 48.7867 214.853 50.2C214.853 52.3067 215.306 53.9067 216.213 55C217.12 56.0667 218.32 56.6 219.813 56.6ZM241.02 60.4C239.393 60.4 238.047 60.1067 236.98 59.52C235.913 58.9067 235.113 58 234.58 56.8C234.073 55.6 233.82 54.1067 233.82 52.32V42.64C233.82 41.7867 234.033 41.16 234.46 40.76C234.887 40.3333 235.5 40.12 236.3 40.12C237.1 40.12 237.713 40.3333 238.14 40.76C238.593 41.16 238.82 41.7867 238.82 42.64V52.4C238.82 53.7867 239.1 54.8133 239.66 55.48C240.22 56.1467 241.113 56.48 242.34 56.48C243.673 56.48 244.767 56.0267 245.62 55.12C246.473 54.1867 246.9 52.96 246.9 51.44V42.64C246.9 41.7867 247.113 41.16 247.54 40.76C247.967 40.3333 248.58 40.12 249.38 40.12C250.18 40.12 250.793 40.3333 251.22 40.76C251.673 41.16 251.9 41.7867 251.9 42.64V57.76C251.9 59.4667 251.087 60.32 249.46 60.32C248.687 60.32 248.087 60.1067 247.66 59.68C247.233 59.2267 247.02 58.5867 247.02 57.76V54.72L247.58 55.92C247.02 57.36 246.167 58.4667 245.02 59.24C243.9 60.0133 242.567 60.4 241.02 60.4ZM264.264 60.4C263.117 60.4 261.904 60.28 260.624 60.04C259.344 59.8 258.197 59.3867 257.184 58.8C256.757 58.5333 256.451 58.2267 256.264 57.88C256.104 57.5067 256.037 57.1467 256.064 56.8C256.117 56.4267 256.251 56.1067 256.464 55.84C256.704 55.5733 256.997 55.4 257.344 55.32C257.717 55.24 258.117 55.3067 258.544 55.52C259.611 56.0267 260.611 56.3867 261.544 56.6C262.477 56.7867 263.397 56.88 264.304 56.88C265.584 56.88 266.531 56.6667 267.144 56.24C267.784 55.7867 268.104 55.2 268.104 54.48C268.104 53.8667 267.891 53.4 267.464 53.08C267.064 52.7333 266.451 52.48 265.624 52.32L261.624 51.56C259.971 51.24 258.704 50.64 257.824 49.76C256.971 48.8533 256.544 47.6933 256.544 46.28C256.544 45 256.891 43.8933 257.584 42.96C258.304 42.0267 259.291 41.3067 260.544 40.8C261.797 40.2933 263.237 40.04 264.864 40.04C266.037 40.04 267.131 40.1733 268.144 40.44C269.184 40.68 270.184 41.0667 271.144 41.6C271.544 41.8133 271.811 42.0933 271.944 42.44C272.104 42.7867 272.144 43.1467 272.064 43.52C271.984 43.8667 271.824 44.1867 271.584 44.48C271.344 44.7467 271.037 44.92 270.664 45C270.317 45.0533 269.917 44.9733 269.464 44.76C268.637 44.3333 267.837 44.0267 267.064 43.84C266.317 43.6533 265.597 43.56 264.904 43.56C263.597 43.56 262.624 43.7867 261.984 44.24C261.371 44.6933 261.064 45.2933 261.064 46.04C261.064 46.6 261.251 47.0667 261.624 47.44C261.997 47.8133 262.571 48.0667 263.344 48.2L267.344 48.96C269.077 49.28 270.384 49.8667 271.264 50.72C272.171 51.5733 272.624 52.72 272.624 54.16C272.624 56.1067 271.864 57.64 270.344 58.76C268.824 59.8533 266.797 60.4 264.264 60.4ZM286.275 60.4C284.062 60.4 282.155 59.9867 280.555 59.16C278.955 58.3333 277.715 57.16 276.835 55.64C275.982 54.12 275.555 52.32 275.555 50.24C275.555 48.2133 275.968 46.44 276.795 44.92C277.648 43.4 278.808 42.2133 280.275 41.36C281.768 40.48 283.462 40.04 285.355 40.04C286.742 40.04 287.982 40.2667 289.075 40.72C290.195 41.1733 291.142 41.8267 291.915 42.68C292.715 43.5333 293.315 44.5733 293.715 45.8C294.142 47 294.355 48.36 294.355 49.88C294.355 50.36 294.182 50.7333 293.835 51C293.515 51.24 293.048 51.36 292.435 51.36H279.595V48.48H290.835L290.195 49.08C290.195 47.8533 290.008 46.8267 289.635 46C289.288 45.1733 288.768 44.5467 288.075 44.12C287.408 43.6667 286.568 43.44 285.555 43.44C284.435 43.44 283.475 43.7067 282.675 44.24C281.902 44.7467 281.302 45.48 280.875 46.44C280.475 47.3733 280.275 48.4933 280.275 49.8V50.08C280.275 52.2667 280.782 53.9067 281.795 55C282.835 56.0667 284.355 56.6 286.355 56.6C287.048 56.6 287.822 56.52 288.675 56.36C289.555 56.1733 290.382 55.8667 291.155 55.44C291.715 55.12 292.208 54.9867 292.635 55.04C293.062 55.0667 293.395 55.2133 293.635 55.48C293.902 55.7467 294.062 56.08 294.115 56.48C294.168 56.8533 294.088 57.24 293.875 57.64C293.688 58.04 293.355 58.3867 292.875 58.68C291.942 59.2667 290.862 59.7067 289.635 60C288.435 60.2667 287.315 60.4 286.275 60.4Z" fill="black"/>
<defs>
<clipPath id="clip0_3_43">
<rect width="109" height="95" fill="white"/>
</clipPath>
</defs>
</svg>
